<mxfile host="65bd71144e">
    <diagram id="T5ZDjKfFqSefyMa5y6Dd" name="Page-1">
        <mxGraphModel dx="1002" dy="939" grid="1" gridSize="10" guides="1" tooltips="1" connect="1" arrows="1" fold="1" page="1" pageScale="1" pageWidth="850" pageHeight="1100" math="0" shadow="0">
            <root>
                <mxCell id="0"/>
                <mxCell id="1" parent="0"/>
                <mxCell id="2" value="&lt;font style=&quot;font-size: 20px;&quot;&gt;To Do&lt;/font&gt;" style="rounded=0;whiteSpace=wrap;html=1;verticalAlign=top;" parent="1" vertex="1">
                    <mxGeometry x="70" y="90" width="250" height="480" as="geometry"/>
                </mxCell>
                <mxCell id="4" value="&lt;font style=&quot;font-size: 20px;&quot;&gt;Work In Progress&lt;/font&gt;" style="rounded=0;whiteSpace=wrap;html=1;verticalAlign=top;" parent="1" vertex="1">
                    <mxGeometry x="320" y="90" width="250" height="480" as="geometry"/>
                </mxCell>
                <mxCell id="5" value="&lt;font style=&quot;font-size: 20px;&quot;&gt;Testing&lt;/font&gt;" style="rounded=0;whiteSpace=wrap;html=1;verticalAlign=top;" parent="1" vertex="1">
                    <mxGeometry x="570" y="90" width="250" height="480" as="geometry"/>
                </mxCell>
                <mxCell id="6" value="&lt;font style=&quot;font-size: 20px;&quot;&gt;Done&lt;/font&gt;" style="rounded=0;whiteSpace=wrap;html=1;verticalAlign=top;" parent="1" vertex="1">
                    <mxGeometry x="820" y="90" width="250" height="480" as="geometry"/>
                </mxCell>
                <mxCell id="7" value="Task" style="rounded=1;whiteSpace=wrap;html=1;" parent="1" vertex="1">
                    <mxGeometry x="135" y="130" width="120" height="60" as="geometry"/>
                </mxCell>
                <mxCell id="8" value="Task" style="rounded=1;whiteSpace=wrap;html=1;" parent="1" vertex="1">
                    <mxGeometry x="135" y="210" width="120" height="60" as="geometry"/>
                </mxCell>
                <mxCell id="9" value="Task" style="rounded=1;whiteSpace=wrap;html=1;" parent="1" vertex="1">
                    <mxGeometry x="135" y="290" width="120" height="60" as="geometry"/>
                </mxCell>
                <mxCell id="10" value="Task" style="rounded=1;whiteSpace=wrap;html=1;" parent="1" vertex="1">
                    <mxGeometry x="385" y="130" width="120" height="60" as="geometry"/>
                </mxCell>
                <mxCell id="11" value="Task" style="rounded=1;whiteSpace=wrap;html=1;" parent="1" vertex="1">
                    <mxGeometry x="385" y="210" width="120" height="60" as="geometry"/>
                </mxCell>
                <mxCell id="12" value="Task" style="rounded=1;whiteSpace=wrap;html=1;" parent="1" vertex="1">
                    <mxGeometry x="635" y="130" width="120" height="60" as="geometry"/>
                </mxCell>
                <mxCell id="13" value="Task" style="rounded=1;whiteSpace=wrap;html=1;" parent="1" vertex="1">
                    <mxGeometry x="635" y="210" width="120" height="60" as="geometry"/>
                </mxCell>
                <mxCell id="14" value="Task" style="rounded=1;whiteSpace=wrap;html=1;" parent="1" vertex="1">
                    <mxGeometry x="635" y="290" width="120" height="60" as="geometry"/>
                </mxCell>
                <mxCell id="15" value="Task" style="rounded=1;whiteSpace=wrap;html=1;" parent="1" vertex="1">
                    <mxGeometry x="885" y="130" width="120" height="60" as="geometry"/>
                </mxCell>
            </root>
        </mxGraphModel>
    </diagram>
</mxfile>